<svg width="40" height="40" viewBox="0 0 40 40" fill="none" xmlns="http://www.w3.org/2000/svg">
  <path d="M26.5 14.5c0-5.5-5.5-10-12.25-10S2 9 2 14.5c0 3.5 2.25 6.5 5.75 8.25L6 26l4.5-2.25c1.25.25 2.5.5 3.75.5.75 0 1.5-.05 2.25-.15-.5-1.5-.75-3-.75-4.6z" fill="white"/>
  <circle cx="10" cy="13" r="1.5" fill="#07c160"/>
  <circle cx="18" cy="13" r="1.5" fill="#07c160"/>
  <path d="M38 19.5c0-4.5-4.5-8.25-10-8.25s-10 3.75-10 8.25 4.5 8.25 10 8.25c1 0 2-.15 2.75-.4L35 30l-1.25-3.5c2.75-1.5 4.25-3.75 4.25-7z" fill="white"/>
  <circle cx="24" cy="18" r="1.2" fill="#07c160"/>
  <circle cx="32" cy="18" r="1.2" fill="#07c160"/>
</svg>